<svg xmlns="http://www.w3.org/2000/svg" xmlns:xlink="http://www.w3.org/1999/xlink" preserveAspectRatio="xMidYMid" width="34" height="34" viewBox="0 0 34 34">
  <defs>
    <style>
      .cls-1 {
        fill: #12cce2;
        fill-rule: evenodd;
      }
    </style>
  </defs>
  <path d="M17.000,34.000 C7.611,34.000 0.000,26.389 0.000,17.000 C0.000,7.612 7.611,0.000 17.000,0.000 C26.389,0.000 34.000,7.612 34.000,17.000 C34.000,26.389 26.389,34.000 17.000,34.000 ZM17.000,1.000 C8.163,1.000 1.000,8.164 1.000,17.000 C1.000,25.837 8.163,33.000 17.000,33.000 C25.837,33.000 33.000,25.837 33.000,17.000 C33.000,8.164 25.837,1.000 17.000,1.000 ZM20.941,26.003 L14.019,26.003 C10.705,26.003 7.996,23.304 7.996,20.009 L7.996,13.003 C7.996,9.702 10.705,6.998 14.019,6.998 L18.233,6.998 C19.788,7.182 22.052,8.509 22.887,10.274 C23.116,10.770 23.237,10.845 23.427,12.314 C23.529,13.069 23.582,13.628 23.921,13.938 C24.398,14.370 26.169,14.079 26.520,14.352 L26.788,14.561 L26.948,14.892 L27.004,15.156 L26.967,20.009 C26.948,23.304 24.256,26.003 20.941,26.003 ZM17.000,12.000 L14.000,12.000 C13.213,12.000 12.750,12.388 12.750,13.175 C12.750,13.962 13.213,15.000 14.000,15.000 L17.000,15.000 C17.787,15.000 18.450,13.962 18.450,13.175 C18.450,12.388 17.787,12.000 17.000,12.000 ZM21.000,18.000 L14.000,18.000 C13.213,18.000 12.750,19.038 12.750,19.825 C12.750,20.612 13.213,21.000 14.000,21.000 L21.000,21.000 C21.787,21.000 22.250,20.612 22.250,19.825 C22.250,19.038 21.787,18.000 21.000,18.000 Z" class="cls-1"/>
</svg>
