<svg xmlns="http://www.w3.org/2000/svg" xmlns:xlink="http://www.w3.org/1999/xlink" preserveAspectRatio="xMidYMid" width="34" height="34" viewBox="0 0 34 34">
  <defs>
    <style>
      .cls-1 {
        fill: #12cce2;
        fill-rule: evenodd;
      }
    </style>
  </defs>
  <path d="M17.000,34.000 C7.611,34.000 0.000,26.389 0.000,17.000 C0.000,7.612 7.611,0.000 17.000,0.000 C26.389,0.000 34.000,7.612 34.000,17.000 C34.000,26.389 26.389,34.000 17.000,34.000 ZM17.000,1.000 C8.163,1.000 1.000,8.164 1.000,17.000 C1.000,25.837 8.163,33.000 17.000,33.000 C25.837,33.000 33.000,25.837 33.000,17.000 C33.000,8.164 25.837,1.000 17.000,1.000 ZM26.438,17.000 L24.188,17.000 L24.188,19.250 C24.188,19.432 24.147,19.811 23.965,19.811 L23.287,19.811 C23.105,19.811 23.063,19.432 23.063,19.250 L23.063,17.000 L20.813,17.000 C20.631,17.000 20.249,16.957 20.249,16.776 L20.249,16.099 C20.249,15.917 20.631,15.875 20.813,15.875 L23.063,15.875 L23.063,13.625 C23.063,13.443 23.105,13.063 23.287,13.063 L23.965,13.063 C24.147,13.063 24.188,13.443 24.188,13.625 L24.188,15.875 L26.438,15.875 C26.619,15.875 27.004,15.917 27.004,16.099 L27.004,16.776 C27.004,16.957 26.619,17.000 26.438,17.000 ZM19.380,9.617 C19.310,9.668 19.225,9.696 19.139,9.696 L18.720,9.696 C19.260,10.355 19.577,11.293 19.577,12.349 C19.577,13.513 18.998,14.615 17.945,15.454 C17.131,16.099 17.099,16.275 17.099,16.645 C17.109,16.848 17.677,17.507 18.301,17.957 C19.758,19.006 20.300,20.034 20.300,21.753 C20.300,23.543 18.962,25.094 16.892,25.706 C16.228,25.901 15.510,26.001 14.756,26.001 C13.918,26.001 13.110,25.902 12.359,25.709 C10.904,25.335 9.826,24.626 9.325,23.713 C9.109,23.319 8.998,22.898 8.998,22.461 C8.998,22.012 9.104,21.557 9.312,21.107 C10.110,19.377 12.212,18.214 14.541,18.214 C14.564,18.214 14.586,18.214 14.608,18.213 C14.418,17.875 14.326,17.525 14.326,17.154 C14.326,16.970 14.350,16.783 14.398,16.593 C11.955,16.536 10.128,14.716 10.128,12.315 C10.128,10.620 11.458,8.970 13.362,8.302 C13.932,8.102 14.513,8.000 15.084,8.000 L20.307,8.000 C20.486,8.000 20.643,8.117 20.698,8.289 C20.753,8.462 20.693,8.651 20.548,8.756 L19.380,9.617 ZM11.704,21.890 C11.704,23.250 13.040,24.315 14.746,24.315 C16.996,24.315 18.136,23.526 18.136,21.969 C18.136,21.822 18.118,21.669 18.083,21.517 C17.931,20.912 17.387,20.535 16.564,19.964 C16.451,19.886 16.332,19.804 16.211,19.718 C15.855,19.607 15.477,19.549 15.090,19.544 L15.043,19.544 C13.264,19.544 11.704,20.641 11.704,21.890 ZM16.882,12.508 C16.678,10.933 15.574,9.624 14.419,9.589 L14.373,9.589 C13.964,9.589 13.600,9.759 13.322,10.082 C12.892,10.581 12.711,11.371 12.824,12.251 C13.026,13.823 14.155,15.183 15.285,15.218 L15.304,15.218 C15.305,15.218 15.305,15.218 15.305,15.218 C15.730,15.218 16.089,15.047 16.367,14.724 C16.803,14.219 16.996,13.390 16.882,12.508 Z" class="cls-1"/>
</svg>
