<svg xmlns="http://www.w3.org/2000/svg" xmlns:xlink="http://www.w3.org/1999/xlink" preserveAspectRatio="xMidYMid" width="34" height="34" viewBox="0 0 34 34">
  <defs>
    <style>
      .cls-1 {
        fill: #12cce2;
        fill-rule: evenodd;
      }
    </style>
  </defs>
  <path d="M17.000,34.000 C7.611,34.000 0.000,26.389 0.000,17.000 C0.000,7.611 7.611,0.000 17.000,0.000 C26.389,0.000 34.000,7.611 34.000,17.000 C34.000,26.389 26.389,34.000 17.000,34.000 ZM17.000,1.063 C8.198,1.063 1.063,8.198 1.063,17.000 C1.063,25.802 8.198,32.938 17.000,32.938 C25.802,32.938 32.938,25.802 32.938,17.000 C32.938,8.198 25.802,1.063 17.000,1.063 ZM24.875,26.000 L9.125,26.000 C8.504,26.000 8.000,25.497 8.000,24.875 L8.000,9.125 C8.000,8.504 8.504,8.000 9.125,8.000 L24.875,8.000 C25.496,8.000 26.000,8.504 26.000,9.125 L26.000,24.875 C26.000,25.497 25.496,26.000 24.875,26.000 ZM17.000,15.000 C15.895,15.000 15.000,15.896 15.000,17.000 C15.000,18.105 15.895,19.000 17.000,19.000 C18.105,19.000 19.000,18.105 19.000,17.000 C19.000,15.896 18.105,15.000 17.000,15.000 ZM24.000,10.000 C24.000,9.448 23.552,9.000 23.000,9.000 L22.000,9.000 C21.448,9.000 21.000,9.448 21.000,10.000 L21.000,11.000 C21.000,11.553 21.448,12.000 22.000,12.000 L23.000,12.000 C23.552,12.000 24.000,11.553 24.000,11.000 L24.000,10.000 ZM24.000,16.000 L20.859,16.000 C20.942,16.322 21.000,16.653 21.000,17.000 C21.000,19.210 19.209,21.000 17.000,21.000 C14.791,21.000 13.000,19.210 13.000,17.000 C13.000,16.653 13.058,16.322 13.142,16.000 L13.000,16.000 L13.000,9.000 L12.000,9.000 L12.000,16.000 L11.000,16.000 L11.000,9.000 L10.000,9.000 L10.000,16.000 L10.000,24.000 L24.000,24.000 L24.000,16.000 Z" class="cls-1"/>
</svg>
