<svg xmlns="http://www.w3.org/2000/svg" xmlns:xlink="http://www.w3.org/1999/xlink" preserveAspectRatio="xMidYMid" width="34" height="34" viewBox="0 0 34 34">
  <defs>
    <style>
      .cls-1 {
        fill: #12cce2;
        fill-rule: evenodd;
      }
    </style>
  </defs>
  <path d="M17.000,34.000 C7.611,34.000 0.000,26.389 0.000,17.000 C0.000,7.612 7.611,0.000 17.000,0.000 C26.389,0.000 34.000,7.612 34.000,17.000 C34.000,26.389 26.389,34.000 17.000,34.000 ZM17.000,1.000 C8.163,1.000 1.000,8.164 1.000,17.000 C1.000,25.837 8.163,33.000 17.000,33.000 C25.837,33.000 33.000,25.837 33.000,17.000 C33.000,8.164 25.837,1.000 17.000,1.000 ZM25.000,22.000 L22.000,22.000 L18.000,22.000 L14.000,22.000 L14.000,13.000 C14.989,11.568 16.627,11.000 18.500,11.000 C21.432,11.000 23.807,13.302 23.969,16.194 C24.292,16.075 24.636,16.000 25.000,16.000 C26.657,16.000 28.000,17.343 28.000,19.000 C28.000,20.657 26.657,22.000 25.000,22.000 ZM12.000,14.000 C12.320,13.915 12.652,14.000 13.000,14.000 L13.000,22.000 L12.000,22.000 L12.000,14.000 ZM10.000,15.392 C10.283,15.064 10.628,15.223 11.000,15.000 L11.000,22.000 L10.000,22.000 L10.000,15.392 ZM8.000,22.000 L8.000,16.000 C8.314,15.888 8.647,16.000 9.000,16.000 L9.000,22.000 C8.647,22.000 8.314,22.112 8.000,22.000 ZM7.000,17.000 L7.000,22.000 C6.391,21.451 6.000,19.885 6.000,19.000 C6.000,18.115 6.391,17.549 7.000,17.000 Z" class="cls-1"/>
</svg>
