<svg xmlns="http://www.w3.org/2000/svg" xmlns:xlink="http://www.w3.org/1999/xlink" preserveAspectRatio="xMidYMid" width="34" height="34" viewBox="0 0 34 34">
  <defs>
    <style>
      .cls-1 {
        fill: #12cce2;
        fill-rule: evenodd;
      }
    </style>
  </defs>
  <path d="M17.000,34.000 C7.611,34.000 0.000,26.389 0.000,17.000 C0.000,7.611 7.611,0.000 17.000,0.000 C26.389,0.000 34.000,7.611 34.000,17.000 C34.000,26.389 26.389,34.000 17.000,34.000 ZM17.000,1.000 C8.163,1.000 1.000,8.164 1.000,17.000 C1.000,25.837 8.163,33.000 17.000,33.000 C25.837,33.000 33.000,25.837 33.000,17.000 C33.000,8.164 25.837,1.000 17.000,1.000 ZM25.953,13.985 C25.960,14.158 25.964,14.332 25.964,14.507 C25.964,19.845 21.837,25.999 14.290,25.999 C11.973,25.999 9.816,25.331 8.000,24.185 C8.321,24.222 8.648,24.241 8.979,24.241 C10.901,24.241 12.671,23.595 14.075,22.512 C12.279,22.479 10.764,21.312 10.242,19.707 C10.492,19.754 10.749,19.779 11.014,19.779 C11.388,19.779 11.751,19.730 12.095,19.638 C10.218,19.266 8.803,17.634 8.803,15.677 C8.803,15.660 8.803,15.643 8.804,15.627 C9.357,15.929 9.990,16.111 10.662,16.131 C9.561,15.407 8.837,14.171 8.837,12.770 C8.837,12.029 9.039,11.336 9.392,10.739 C11.416,13.183 14.440,14.791 17.850,14.959 C17.780,14.664 17.744,14.356 17.744,14.039 C17.744,11.808 19.581,10.000 21.847,10.000 C23.027,10.000 24.093,10.490 24.842,11.275 C25.777,11.094 26.655,10.758 27.448,10.295 C27.141,11.239 26.491,12.030 25.643,12.530 C26.473,12.432 27.264,12.215 28.000,11.894 C27.450,12.704 26.754,13.415 25.953,13.985 Z" class="cls-1"/>
</svg>
