<svg xmlns="http://www.w3.org/2000/svg" xmlns:xlink="http://www.w3.org/1999/xlink" preserveAspectRatio="xMidYMid" width="34" height="34" viewBox="0 0 34 34">
  <defs>
    <style>
      .cls-1 {
        fill: #12cce2;
        fill-rule: evenodd;
      }
    </style>
  </defs>
  <path d="M17.000,34.000 C7.611,34.000 0.000,26.389 0.000,17.000 C0.000,7.611 7.611,0.000 17.000,0.000 C26.389,0.000 34.000,7.611 34.000,17.000 C34.000,26.389 26.389,34.000 17.000,34.000 ZM17.000,1.000 C8.164,1.000 1.000,8.164 1.000,17.000 C1.000,25.837 8.164,33.000 17.000,33.000 C25.837,33.000 33.000,25.837 33.000,17.000 C33.000,8.164 25.837,1.000 17.000,1.000 ZM17.668,25.596 C15.789,26.783 14.075,25.122 13.454,23.866 C12.742,22.433 10.611,14.671 10.052,14.028 C9.494,13.385 7.818,14.671 7.818,14.671 L7.006,13.634 C7.006,13.634 10.408,9.678 12.996,9.183 C15.741,8.659 15.737,13.287 16.398,15.856 C17.036,18.342 17.466,19.764 18.023,19.764 C18.581,19.764 19.648,18.378 20.815,16.253 C21.984,14.127 20.764,12.247 18.480,13.584 C19.393,8.243 28.025,6.960 26.908,13.089 C25.790,19.219 19.546,24.410 17.668,25.596 Z" class="cls-1"/>
</svg>
