<svg xmlns="http://www.w3.org/2000/svg" xmlns:xlink="http://www.w3.org/1999/xlink" preserveAspectRatio="xMidYMid" width="34" height="34" viewBox="0 0 34 34">
  <defs>
    <style>
      .cls-1 {
        fill: #12cce2;
        fill-rule: evenodd;
      }
    </style>
  </defs>
  <path d="M17.000,34.000 C7.611,34.000 0.000,26.389 0.000,17.000 C0.000,7.611 7.611,0.000 17.000,0.000 C26.389,0.000 34.000,7.611 34.000,17.000 C34.000,26.389 26.389,34.000 17.000,34.000 ZM17.000,1.000 C8.163,1.000 1.000,8.164 1.000,17.000 C1.000,25.837 8.163,33.000 17.000,33.000 C25.837,33.000 33.000,25.837 33.000,17.000 C33.000,8.164 25.837,1.000 17.000,1.000 ZM22.710,24.996 L11.290,24.996 C9.474,24.996 8.003,23.574 8.003,21.822 L8.003,19.272 C8.003,17.520 9.474,16.098 11.290,16.098 L22.710,16.098 C24.525,16.098 25.997,17.520 25.997,19.272 L25.997,21.822 C25.997,23.574 24.525,24.996 22.710,24.996 ZM13.002,16.998 L10.009,16.998 L10.009,17.869 L11.018,17.869 L11.018,22.988 L11.993,22.988 L11.993,17.869 L13.002,17.869 L13.002,16.998 ZM16.000,19.000 L14.949,18.998 L14.949,21.988 C14.850,22.073 14.742,22.144 14.622,22.199 C14.504,22.254 14.405,22.282 14.329,22.282 C14.230,22.282 14.158,22.262 14.112,22.219 C14.070,22.178 14.047,22.111 14.047,22.018 L14.047,18.998 L12.995,18.998 L12.995,22.288 C12.995,22.524 13.057,22.698 13.179,22.816 C13.304,22.934 13.485,22.992 13.729,22.992 C13.927,22.992 14.131,22.951 14.341,22.866 C14.552,22.784 14.753,22.662 14.949,22.503 L14.949,22.934 L16.000,23.000 L16.000,19.000 ZM19.991,19.610 C19.991,19.250 19.904,18.975 19.730,18.788 C19.556,18.600 19.305,18.508 18.976,18.508 C18.814,18.508 18.654,18.542 18.495,18.612 C18.340,18.682 18.190,18.784 18.050,18.917 L18.050,16.998 L17.000,17.000 L17.000,23.000 L18.050,22.958 L18.050,22.621 C18.186,22.756 18.335,22.855 18.494,22.918 C18.653,22.983 18.834,23.014 19.039,23.014 C19.346,23.014 19.584,22.932 19.746,22.766 C19.909,22.599 19.991,22.360 19.991,22.050 L19.991,19.610 ZM23.991,21.303 L22.946,21.303 L22.946,21.519 C22.946,21.799 22.911,21.979 22.845,22.062 C22.777,22.144 22.660,22.185 22.491,22.185 C22.329,22.185 22.214,22.137 22.147,22.040 C22.080,21.943 22.048,21.769 22.048,21.519 L22.048,20.624 L23.991,20.624 L23.991,19.412 C23.991,18.961 23.867,18.616 23.617,18.376 C23.367,18.135 23.009,18.015 22.544,18.015 C22.089,18.015 21.720,18.145 21.432,18.404 C21.144,18.663 21.000,19.001 21.000,19.412 L21.000,21.547 C21.000,22.005 21.132,22.365 21.393,22.625 C21.653,22.886 22.012,23.016 22.468,23.016 C22.974,23.016 23.355,22.894 23.608,22.649 C23.865,22.401 23.991,22.034 23.991,21.547 L23.991,21.303 ZM22.002,19.548 C22.002,19.356 22.043,19.218 22.122,19.137 C22.199,19.052 22.327,19.010 22.500,19.010 C22.681,19.010 22.810,19.052 22.889,19.137 C22.969,19.218 23.006,19.356 23.006,19.548 L23.006,20.011 L22.002,20.011 L22.002,19.548 ZM18.425,22.013 C18.274,22.013 18.163,21.982 18.092,21.921 C18.022,21.861 17.986,21.764 17.986,21.628 L17.986,20.426 C17.986,20.281 18.028,20.173 18.115,20.098 C18.205,20.025 18.334,19.988 18.499,19.988 C18.587,19.988 18.675,20.001 18.761,20.029 C18.847,20.056 18.931,20.101 19.015,20.159 L19.015,21.815 C18.916,21.884 18.818,21.937 18.723,21.967 C18.628,21.996 18.530,22.013 18.425,22.013 ZM20.955,14.370 C20.764,14.570 20.563,14.723 20.353,14.828 C20.144,14.931 19.943,14.985 19.746,14.985 C19.503,14.985 19.322,14.910 19.199,14.764 C19.077,14.619 19.015,14.400 19.015,14.108 L19.015,10.009 L20.060,10.009 L20.060,13.769 C20.060,13.884 20.084,13.968 20.128,14.020 C20.171,14.073 20.243,14.098 20.341,14.098 C20.417,14.098 20.515,14.064 20.633,13.995 C20.750,13.926 20.858,13.838 20.955,13.732 L20.955,10.009 L22.002,10.009 L22.002,14.913 L20.955,14.913 L20.955,14.370 ZM16.515,15.005 C16.044,15.005 15.675,14.890 15.405,14.658 C15.138,14.425 15.004,14.108 15.004,13.701 L15.004,11.245 C15.004,10.883 15.141,10.585 15.413,10.356 C15.688,10.127 16.039,10.011 16.468,10.011 C16.938,10.011 17.314,10.120 17.592,10.338 C17.871,10.556 18.010,10.848 18.010,11.218 L18.010,13.682 C18.010,14.087 17.874,14.407 17.603,14.646 C17.331,14.885 16.968,15.005 16.515,15.005 ZM16.944,11.182 C16.944,11.079 16.905,10.995 16.827,10.930 C16.746,10.866 16.644,10.835 16.518,10.835 C16.381,10.835 16.270,10.866 16.186,10.930 C16.102,10.995 16.059,11.079 16.059,11.182 L16.059,13.772 C16.059,13.899 16.101,14.000 16.184,14.073 C16.266,14.146 16.378,14.181 16.518,14.181 C16.655,14.181 16.761,14.147 16.834,14.074 C16.907,14.002 16.944,13.903 16.944,13.772 L16.944,11.182 ZM13.614,15.008 L12.423,15.008 L12.423,12.234 L11.005,8.005 L12.205,8.005 L12.978,10.804 L13.053,10.804 L13.790,8.005 L15.000,8.005 L13.614,12.103 L13.614,15.008 Z" class="cls-1"/>
</svg>
